<?xml version="1.0" encoding="UTF-8" standalone="no"?>
<!DOCTYPE svg PUBLIC "-//W3C//DTD SVG 1.1//EN"
 "http://www.w3.org/Graphics/SVG/1.1/DTD/svg11.dtd">
<!-- Generated by graphviz version 2.43.0 (0)
 -->
<!-- Title: %3 Pages: 1 -->
<svg width="1489pt" height="1063pt"
 viewBox="0.00 0.00 1489.00 1062.99" xmlns="http://www.w3.org/2000/svg" xmlns:xlink="http://www.w3.org/1999/xlink">
<g id="graph0" class="graph" transform="scale(1 1) rotate(0) translate(4 1058.99)">
<title>%3</title>
<polygon fill="white" stroke="transparent" points="-4,4 -4,-1058.99 1485,-1058.99 1485,4 -4,4"/>
<!-- samp_meng.CancelOrderMsg -->
<g id="node1" class="node">
<title>samp_meng.CancelOrderMsg</title>
<polygon fill="none" stroke="#bbbbbb" points="339.5,-705 339.5,-726 544.5,-726 544.5,-705 339.5,-705"/>
<text text-anchor="start" x="342.5" y="-711.8" font-family="Courier,monospace" font-size="14.00" fill="#333388">samp_meng.CancelOrderMsg</text>
<polygon fill="none" stroke="#bbbbbb" points="339.5,-684 339.5,-705 544.5,-705 544.5,-684 339.5,-684"/>
<text text-anchor="start" x="404.5" y="-690.8" font-family="Courier,monospace" font-size="14.00" fill="#333388">Base base</text>
</g>
<!-- samp_meng.CancelReqMsg -->
<g id="node2" class="node">
<title>samp_meng.CancelReqMsg</title>
<polygon fill="none" stroke="#bbbbbb" points="347.5,-637 347.5,-658 535.5,-658 535.5,-637 347.5,-637"/>
<text text-anchor="start" x="350.5" y="-643.8" font-family="Courier,monospace" font-size="14.00" fill="#333388">samp_meng.CancelReqMsg</text>
<polygon fill="none" stroke="#bbbbbb" points="347.5,-616 347.5,-637 535.5,-637 535.5,-616 347.5,-616"/>
<text text-anchor="start" x="404" y="-622.8" font-family="Courier,monospace" font-size="14.00" fill="#333388">Base base</text>
</g>
<!-- samp_meng.FDb -->
<g id="node3" class="node">
<title>samp_meng.FDb</title>
<polygon fill="none" stroke="#bbbbbb" points="12.5,-981 12.5,-1002 167.5,-1002 167.5,-981 12.5,-981"/>
<text text-anchor="start" x="36" y="-987.8" font-family="Courier,monospace" font-size="14.00" fill="#333388">samp_meng.FDb</text>
<polygon fill="none" stroke="#bbbbbb" points="12.5,-960 12.5,-981 167.5,-981 167.5,-960 12.5,-960"/>
<text text-anchor="start" x="52.5" y="-966.8" font-family="Courier,monospace" font-size="14.00" fill="#333388">Lary fdin</text>
<polygon fill="none" stroke="#bbbbbb" points="12.5,-939 12.5,-960 167.5,-960 167.5,-939 12.5,-939"/>
<text text-anchor="start" x="44.5" y="-945.8" font-family="Courier,monospace" font-size="14.00" fill="#333388">Lary symbol</text>
<polygon fill="none" stroke="#bbbbbb" points="12.5,-918 12.5,-939 167.5,-939 167.5,-918 12.5,-918"/>
<text text-anchor="start" x="44.5" y="-924.8" font-family="Courier,monospace" font-size="14.00" fill="#333388">Tpool order</text>
<polygon fill="none" stroke="#bbbbbb" points="12.5,-897 12.5,-918 167.5,-918 167.5,-897 12.5,-897"/>
<text text-anchor="start" x="48.5" y="-903.8" font-family="Courier,monospace" font-size="14.00" fill="#333388">Tpool ordq</text>
<polygon fill="none" stroke="#bbbbbb" points="12.5,-876 12.5,-897 167.5,-897 167.5,-876 12.5,-876"/>
<text text-anchor="start" x="52.5" y="-882.8" font-family="Courier,monospace" font-size="14.00" fill="#333388">Lary user</text>
<polygon fill="none" stroke="#bbbbbb" points="12.5,-855 12.5,-876 167.5,-876 167.5,-855 12.5,-855"/>
<text text-anchor="start" x="19.5" y="-861.8" font-family="Courier,monospace" font-size="14.00" fill="#333388">Llist cd_fdin_eof</text>
<polygon fill="none" stroke="#bbbbbb" points="12.5,-834 12.5,-855 167.5,-855 167.5,-834 12.5,-834"/>
<text text-anchor="start" x="15.5" y="-840.8" font-family="Courier,monospace" font-size="14.00" fill="#333388">Llist cd_fdin_read</text>
<polygon fill="none" stroke="#bbbbbb" points="12.5,-813 12.5,-834 167.5,-834 167.5,-813 12.5,-813"/>
<text text-anchor="start" x="23.5" y="-819.8" font-family="Courier,monospace" font-size="14.00" fill="#333388">Thash ind_symbol</text>
<polygon fill="none" stroke="#bbbbbb" points="12.5,-792 12.5,-813 167.5,-813 167.5,-792 12.5,-792"/>
<text text-anchor="start" x="28" y="-798.8" font-family="Courier,monospace" font-size="14.00" fill="#333388">Thash ind_order</text>
<polygon fill="none" stroke="#bbbbbb" points="12.5,-771 12.5,-792 167.5,-792 167.5,-771 12.5,-771"/>
<text text-anchor="start" x="32" y="-777.8" font-family="Courier,monospace" font-size="14.00" fill="#333388">Thash ind_user</text>
</g>
<!-- samp_meng.FFdin -->
<g id="node4" class="node">
<title>samp_meng.FFdin</title>
<polygon fill="none" stroke="#bbbbbb" points="376.5,-831 376.5,-852 506.5,-852 506.5,-831 376.5,-831"/>
<text text-anchor="start" x="379.5" y="-837.8" font-family="Courier,monospace" font-size="14.00" fill="#333388">samp_meng.FFdin</text>
</g>
<!-- samp_meng.FDb&#45;&gt;samp_meng.FFdin -->
<g id="edge1" class="edge">
<title>samp_meng.FDb:Lary fdin&#45;&gt;samp_meng.FFdin</title>
<path fill="none" stroke="#333388" d="M168.5,-971C249.58,-971 248.75,-906.56 323,-874 334.23,-869.08 346.4,-864.74 358.51,-860.98"/>
<polygon fill="#333388" stroke="#333388" points="359.61,-864.3 368.19,-858.09 357.61,-857.6 359.61,-864.3"/>
</g>
<!-- samp_meng.FDb&#45;&gt;samp_meng.FFdin -->
<g id="edge11" class="edge">
<title>samp_meng.FDb:Llist cd_fdin_eof&#45;&gt;samp_meng.FFdin</title>
<path fill="none" stroke="#333388" d="M168.5,-865C232.39,-865 304.42,-858.62 358.3,-852.58"/>
<polygon fill="#333388" stroke="#333388" points="358.94,-856.03 368.48,-851.42 358.15,-849.08 358.94,-856.03"/>
</g>
<!-- samp_meng.FDb&#45;&gt;samp_meng.FFdin -->
<g id="edge12" class="edge">
<title>samp_meng.FDb:Llist cd_fdin_read&#45;&gt;samp_meng.FFdin</title>
<path fill="none" stroke="#333388" d="M168.5,-844C232.16,-844 304.2,-843.45 358.15,-842.92"/>
<polygon fill="#333388" stroke="#333388" points="358.38,-846.42 368.34,-842.82 358.31,-839.42 358.38,-846.42"/>
</g>
<!-- samp_meng.FOrder -->
<g id="node5" class="node">
<title>samp_meng.FOrder</title>
<polygon fill="none" stroke="#bbbbbb" points="1011.5,-890 1011.5,-911 1150.5,-911 1150.5,-890 1011.5,-890"/>
<text text-anchor="start" x="1014.5" y="-896.8" font-family="Courier,monospace" font-size="14.00" fill="#333388">samp_meng.FOrder</text>
<polygon fill="none" stroke="#bbbbbb" points="1011.5,-869 1011.5,-890 1150.5,-890 1150.5,-869 1011.5,-869"/>
<text text-anchor="start" x="1043.5" y="-875.8" font-family="Courier,monospace" font-size="14.00" fill="#333388">Val price</text>
<polygon fill="none" stroke="#bbbbbb" points="1011.5,-848 1011.5,-869 1150.5,-869 1150.5,-848 1011.5,-848"/>
<text text-anchor="start" x="1039.5" y="-854.8" font-family="Courier,monospace" font-size="14.00" fill="#333388">Val ordkey</text>
<polygon fill="none" stroke="#bbbbbb" points="1011.5,-827 1011.5,-848 1150.5,-848 1150.5,-827 1011.5,-827"/>
<text text-anchor="start" x="1031" y="-833.8" font-family="Courier,monospace" font-size="14.00" fill="#333388">Upptr p_ordq</text>
<polygon fill="none" stroke="#bbbbbb" points="1011.5,-806 1011.5,-827 1150.5,-827 1150.5,-806 1011.5,-806"/>
<text text-anchor="start" x="1031" y="-812.8" font-family="Courier,monospace" font-size="14.00" fill="#333388">Upptr p_user</text>
</g>
<!-- samp_meng.FDb&#45;&gt;samp_meng.FOrder -->
<g id="edge3" class="edge">
<title>samp_meng.FDb:Tpool order&#45;&gt;samp_meng.FOrder</title>
<path fill="none" stroke="#333388" d="M168.5,-929C247.74,-929 246.45,-997.53 323,-1018 553.54,-1079.65 632.07,-1059.84 859,-986 906.35,-970.59 954.76,-944.13 994.11,-919.33"/>
<polygon fill="#333388" stroke="#333388" points="996.32,-922.07 1002.87,-913.74 992.56,-916.17 996.32,-922.07"/>
</g>
<!-- samp_meng.FDb&#45;&gt;samp_meng.FOrder -->
<g id="edge14" class="edge">
<title>samp_meng.FDb:Thash ind_order&#45;&gt;samp_meng.FOrder</title>
<path fill="none" stroke="#333388" d="M168.5,-802C342.6,-802 386.21,-804.76 560,-815 712.37,-823.98 889.42,-840.22 992.52,-850.26"/>
<polygon fill="#333388" stroke="#333388" points="992.28,-853.75 1002.57,-851.24 992.96,-846.79 992.28,-853.75"/>
</g>
<!-- samp_meng.FOrdq -->
<g id="node6" class="node">
<title>samp_meng.FOrdq</title>
<polygon fill="none" stroke="#bbbbbb" points="716.5,-951 716.5,-972 846.5,-972 846.5,-951 716.5,-951"/>
<text text-anchor="start" x="719.5" y="-957.8" font-family="Courier,monospace" font-size="14.00" fill="#333388">samp_meng.FOrdq</text>
<polygon fill="none" stroke="#bbbbbb" points="716.5,-930 716.5,-951 846.5,-951 846.5,-930 716.5,-930"/>
<text text-anchor="start" x="723.5" y="-936.8" font-family="Courier,monospace" font-size="14.00" fill="#333388">Upptr p_symbol</text>
<polygon fill="none" stroke="#bbbbbb" points="716.5,-909 716.5,-930 846.5,-930 846.5,-909 716.5,-909"/>
<text text-anchor="start" x="723.5" y="-915.8" font-family="Courier,monospace" font-size="14.00" fill="#333388">Bheap bh_order</text>
</g>
<!-- samp_meng.FDb&#45;&gt;samp_meng.FOrdq -->
<g id="edge4" class="edge">
<title>samp_meng.FDb:Tpool ordq&#45;&gt;samp_meng.FOrdq</title>
<path fill="none" stroke="#333388" d="M168.5,-908C247.74,-908 246.45,-976.53 323,-997 424.76,-1024.21 455.48,-1010.06 560,-997 606.62,-991.17 657.53,-978.67 698.67,-966.95"/>
<polygon fill="#333388" stroke="#333388" points="699.73,-970.29 708.37,-964.15 697.79,-963.56 699.73,-970.29"/>
</g>
<!-- samp_meng.FSymbol -->
<g id="node7" class="node">
<title>samp_meng.FSymbol</title>
<polygon fill="none" stroke="#bbbbbb" points="368.5,-962 368.5,-983 515.5,-983 515.5,-962 368.5,-962"/>
<text text-anchor="start" x="371.5" y="-968.8" font-family="Courier,monospace" font-size="14.00" fill="#333388">samp_meng.FSymbol</text>
<polygon fill="none" stroke="#bbbbbb" points="368.5,-941 368.5,-962 515.5,-962 515.5,-941 368.5,-941"/>
<text text-anchor="start" x="400.5" y="-947.8" font-family="Courier,monospace" font-size="14.00" fill="#333388">Val symbol</text>
<polygon fill="none" stroke="#bbbbbb" points="368.5,-920 368.5,-941 515.5,-941 515.5,-920 368.5,-920"/>
<text text-anchor="start" x="388" y="-926.8" font-family="Courier,monospace" font-size="14.00" fill="#333388">Ptrary c_ordq</text>
</g>
<!-- samp_meng.FDb&#45;&gt;samp_meng.FSymbol -->
<g id="edge2" class="edge">
<title>samp_meng.FDb:Lary symbol&#45;&gt;samp_meng.FSymbol</title>
<path fill="none" stroke="#333388" d="M168.5,-950C228.95,-950 296.95,-950.5 349.84,-951"/>
<polygon fill="#333388" stroke="#333388" points="349.83,-954.5 359.87,-951.1 349.9,-947.5 349.83,-954.5"/>
</g>
<!-- samp_meng.FDb&#45;&gt;samp_meng.FSymbol -->
<g id="edge13" class="edge">
<title>samp_meng.FDb:Thash ind_symbol&#45;&gt;samp_meng.FSymbol</title>
<path fill="none" stroke="#333388" d="M168.5,-823C245.62,-823 253.14,-869.33 323,-902 331.89,-906.16 341.21,-910.37 350.56,-914.5"/>
<polygon fill="#333388" stroke="#333388" points="349.33,-917.78 359.9,-918.59 352.14,-911.37 349.33,-917.78"/>
</g>
<!-- samp_meng.FUser -->
<g id="node8" class="node">
<title>samp_meng.FUser</title>
<polygon fill="none" stroke="#bbbbbb" points="716.5,-758 716.5,-779 846.5,-779 846.5,-758 716.5,-758"/>
<text text-anchor="start" x="719.5" y="-764.8" font-family="Courier,monospace" font-size="14.00" fill="#333388">samp_meng.FUser</text>
<polygon fill="none" stroke="#bbbbbb" points="716.5,-737 716.5,-758 846.5,-758 846.5,-737 716.5,-737"/>
<text text-anchor="start" x="723.5" y="-743.8" font-family="Courier,monospace" font-size="14.00" fill="#333388">Llist zd_order</text>
</g>
<!-- samp_meng.FDb&#45;&gt;samp_meng.FUser -->
<g id="edge5" class="edge">
<title>samp_meng.FDb:Lary user&#45;&gt;samp_meng.FUser</title>
<path fill="none" stroke="#333388" d="M168.5,-886C342.66,-886 391.46,-912.91 560,-869 624.21,-852.27 691.41,-815.17 734.5,-788.47"/>
<polygon fill="#333388" stroke="#333388" points="736.43,-791.38 743.05,-783.1 732.72,-785.45 736.43,-791.38"/>
</g>
<!-- samp_meng.FDb&#45;&gt;samp_meng.FUser -->
<g id="edge15" class="edge">
<title>samp_meng.FDb:Thash ind_user&#45;&gt;samp_meng.FUser</title>
<path fill="none" stroke="#333388" d="M168.5,-781C358.34,-781 581.07,-769.81 698.47,-763.04"/>
<polygon fill="#333388" stroke="#333388" points="698.68,-766.54 708.46,-762.46 698.27,-759.55 698.68,-766.54"/>
</g>
<!-- samp_meng.I64Price8 -->
<g id="node9" class="node">
<title>samp_meng.I64Price8</title>
<polygon fill="none" stroke="#bbbbbb" points="1310.5,-885 1310.5,-906 1473.5,-906 1473.5,-885 1310.5,-885"/>
<text text-anchor="start" x="1313.5" y="-891.8" font-family="Courier,monospace" font-size="14.00" fill="#333388">samp_meng.I64Price8</text>
</g>
<!-- samp_meng.FOrder&#45;&gt;samp_meng.I64Price8 -->
<g id="edge6" class="edge">
<title>samp_meng.FOrder:Val price&#45;&gt;samp_meng.I64Price8</title>
<path fill="none" stroke="#333388" d="M1151.5,-880C1197.6,-880 1248.6,-883 1291.6,-886.4"/>
<polygon fill="#333388" stroke="#333388" points="1291.53,-889.91 1301.78,-887.23 1292.1,-882.93 1291.53,-889.91"/>
</g>
<!-- samp_meng.Ordkey -->
<g id="node19" class="node">
<title>samp_meng.Ordkey</title>
<polygon fill="none" stroke="#bbbbbb" points="1322.5,-831 1322.5,-852 1461.5,-852 1461.5,-831 1322.5,-831"/>
<text text-anchor="start" x="1325.5" y="-837.8" font-family="Courier,monospace" font-size="14.00" fill="#333388">samp_meng.Ordkey</text>
</g>
<!-- samp_meng.FOrder&#45;&gt;samp_meng.Ordkey -->
<g id="edge7" class="edge">
<title>samp_meng.FOrder:Val ordkey&#45;&gt;samp_meng.Ordkey</title>
<path fill="none" stroke="#333388" d="M1151.5,-858C1202.05,-858 1258.48,-854.39 1303.81,-850.6"/>
<polygon fill="#333388" stroke="#333388" points="1304.23,-854.08 1313.9,-849.74 1303.64,-847.11 1304.23,-854.08"/>
</g>
<!-- samp_meng.FOrdq&#45;&gt;samp_meng.FOrder -->
<g id="edge16" class="edge">
<title>samp_meng.FOrdq&#45;&gt;samp_meng.FOrder:Upptr p_ordq</title>
<path fill="none" stroke="#333388" d="M853.58,-900.67C907.8,-871.43 978.46,-837 1010.5,-837"/>
<polygon fill="#333388" stroke="#333388" points="851.81,-897.65 844.69,-905.5 855.15,-903.8 851.81,-897.65"/>
</g>
<!-- samp_meng.FOrdq&#45;&gt;samp_meng.FOrder -->
<g id="edge19" class="edge">
<title>samp_meng.FOrdq:Bheap bh_order&#45;&gt;samp_meng.FOrder</title>
<path fill="none" stroke="#333388" d="M847.5,-919C896.81,-919 950.2,-906.14 993.31,-892.32"/>
<polygon fill="#333388" stroke="#333388" points="994.5,-895.62 1002.91,-889.18 992.32,-888.96 994.5,-895.62"/>
</g>
<!-- samp_meng.FSymbol&#45;&gt;samp_meng.FOrdq -->
<g id="edge18" class="edge">
<title>samp_meng.FSymbol&#45;&gt;samp_meng.FOrdq:Upptr p_symbol</title>
<path fill="none" stroke="#333388" d="M533.16,-946.02C586.27,-943.01 654.66,-940 715.5,-940"/>
<polygon fill="#333388" stroke="#333388" points="532.87,-942.53 523.09,-946.6 533.28,-949.52 532.87,-942.53"/>
</g>
<!-- samp_meng.FSymbol&#45;&gt;samp_meng.FOrdq -->
<g id="edge20" class="edge">
<title>samp_meng.FSymbol:Ptrary c_ordq&#45;&gt;samp_meng.FOrdq</title>
<path fill="none" stroke="#333388" d="M516.5,-930C577.35,-930 646.03,-932.95 698.08,-935.8"/>
<polygon fill="#333388" stroke="#333388" points="698.08,-939.31 708.26,-936.37 698.47,-932.32 698.08,-939.31"/>
</g>
<!-- samp_meng.Symbol -->
<g id="node20" class="node">
<title>samp_meng.Symbol</title>
<polygon fill="none" stroke="#bbbbbb" points="712.5,-858 712.5,-879 851.5,-879 851.5,-858 712.5,-858"/>
<text text-anchor="start" x="715.5" y="-864.8" font-family="Courier,monospace" font-size="14.00" fill="#333388">samp_meng.Symbol</text>
</g>
<!-- samp_meng.FSymbol&#45;&gt;samp_meng.Symbol -->
<g id="edge8" class="edge">
<title>samp_meng.FSymbol:Val symbol&#45;&gt;samp_meng.Symbol</title>
<path fill="none" stroke="#333388" d="M516.5,-951C536.93,-951 646.94,-914.74 718.35,-890.44"/>
<polygon fill="#333388" stroke="#333388" points="719.82,-893.64 728.16,-887.1 717.56,-887.01 719.82,-893.64"/>
</g>
<!-- samp_meng.FUser&#45;&gt;samp_meng.FOrder -->
<g id="edge17" class="edge">
<title>samp_meng.FUser&#45;&gt;samp_meng.FOrder:Upptr p_user</title>
<path fill="none" stroke="#333388" d="M855.28,-786.33C899.47,-801.05 957.42,-816 1010.5,-816"/>
<polygon fill="#333388" stroke="#333388" points="856.37,-783.01 845.78,-783.1 854.12,-789.64 856.37,-783.01"/>
</g>
<!-- samp_meng.FUser&#45;&gt;samp_meng.FOrder -->
<g id="edge21" class="edge">
<title>samp_meng.FUser:Llist zd_order&#45;&gt;samp_meng.FOrder</title>
<path fill="none" stroke="#333388" d="M847.5,-747C900.64,-747 954.43,-771.13 996.82,-796.98"/>
<polygon fill="#333388" stroke="#333388" points="995.07,-800.02 1005.41,-802.34 998.78,-794.08 995.07,-800.02"/>
</g>
<!-- samp_meng.MassCancelReqMsg -->
<g id="node10" class="node">
<title>samp_meng.MassCancelReqMsg</title>
<polygon fill="none" stroke="#bbbbbb" points="331.5,-569 331.5,-590 552.5,-590 552.5,-569 331.5,-569"/>
<text text-anchor="start" x="334.5" y="-575.8" font-family="Courier,monospace" font-size="14.00" fill="#333388">samp_meng.MassCancelReqMsg</text>
<polygon fill="none" stroke="#bbbbbb" points="331.5,-548 331.5,-569 552.5,-569 552.5,-548 331.5,-548"/>
<text text-anchor="start" x="404.5" y="-554.8" font-family="Courier,monospace" font-size="14.00" fill="#333388">Base base</text>
</g>
<!-- samp_meng.MsgHeader -->
<g id="node11" class="node">
<title>samp_meng.MsgHeader</title>
<polygon fill="none" stroke="#bbbbbb" points="8.5,-343 8.5,-364 171.5,-364 171.5,-343 8.5,-343"/>
<text text-anchor="start" x="11.5" y="-349.8" font-family="Courier,monospace" font-size="14.00" fill="#333388">samp_meng.MsgHeader</text>
</g>
<!-- samp_meng.MsgHeader&#45;&gt;samp_meng.CancelOrderMsg -->
<g id="edge9" class="edge">
<title>samp_meng.MsgHeader&#45;&gt;samp_meng.CancelOrderMsg:Base base</title>
<path fill="none" stroke="#333388" d="M96.63,-382.35C116.12,-464.02 184.67,-694 338.5,-694"/>
<polygon fill="#333388" stroke="#333388" points="99.96,-381.23 94.3,-372.28 93.14,-382.81 99.96,-381.23"/>
</g>
<!-- samp_meng.MsgHeader&#45;&gt;samp_meng.CancelReqMsg -->
<g id="edge10" class="edge">
<title>samp_meng.MsgHeader&#45;&gt;samp_meng.CancelReqMsg:Base base</title>
<path fill="none" stroke="#333388" d="M100.94,-381.68C129.05,-450.9 213.3,-626 346.5,-626"/>
<polygon fill="#333388" stroke="#333388" points="104.15,-380.27 97.2,-372.27 97.64,-382.85 104.15,-380.27"/>
</g>
<!-- samp_meng.MsgHeader&#45;&gt;samp_meng.MassCancelReqMsg -->
<g id="edge22" class="edge">
<title>samp_meng.MsgHeader&#45;&gt;samp_meng.MassCancelReqMsg:Base base</title>
<path fill="none" stroke="#333388" d="M105.42,-381.03C138.23,-436.5 222.46,-558 330.5,-558"/>
<polygon fill="#333388" stroke="#333388" points="108.28,-379 100.24,-372.1 102.23,-382.51 108.28,-379"/>
</g>
<!-- samp_meng.NewOrderMsg -->
<g id="node12" class="node">
<title>samp_meng.NewOrderMsg</title>
<polygon fill="none" stroke="#bbbbbb" points="351.5,-501 351.5,-522 531.5,-522 531.5,-501 351.5,-501"/>
<text text-anchor="start" x="354.5" y="-507.8" font-family="Courier,monospace" font-size="14.00" fill="#333388">samp_meng.NewOrderMsg</text>
<polygon fill="none" stroke="#bbbbbb" points="351.5,-480 351.5,-501 531.5,-501 531.5,-480 351.5,-480"/>
<text text-anchor="start" x="404" y="-486.8" font-family="Courier,monospace" font-size="14.00" fill="#333388">Base base</text>
</g>
<!-- samp_meng.MsgHeader&#45;&gt;samp_meng.NewOrderMsg -->
<g id="edge23" class="edge">
<title>samp_meng.MsgHeader&#45;&gt;samp_meng.NewOrderMsg:Base base</title>
<path fill="none" stroke="#333388" d="M116.71,-378.75C161.11,-417.96 255.59,-490 350.5,-490"/>
<polygon fill="#333388" stroke="#333388" points="119.04,-376.14 109.26,-372.06 114.37,-381.35 119.04,-376.14"/>
</g>
<!-- samp_meng.NewOrderReqMsg -->
<g id="node13" class="node">
<title>samp_meng.NewOrderReqMsg</title>
<polygon fill="none" stroke="#bbbbbb" points="339.5,-433 339.5,-454 544.5,-454 544.5,-433 339.5,-433"/>
<text text-anchor="start" x="342.5" y="-439.8" font-family="Courier,monospace" font-size="14.00" fill="#333388">samp_meng.NewOrderReqMsg</text>
<polygon fill="none" stroke="#bbbbbb" points="339.5,-412 339.5,-433 544.5,-433 544.5,-412 339.5,-412"/>
<text text-anchor="start" x="404.5" y="-418.8" font-family="Courier,monospace" font-size="14.00" fill="#333388">Base base</text>
</g>
<!-- samp_meng.MsgHeader&#45;&gt;samp_meng.NewOrderReqMsg -->
<g id="edge24" class="edge">
<title>samp_meng.MsgHeader&#45;&gt;samp_meng.NewOrderReqMsg:Base base</title>
<path fill="none" stroke="#333388" d="M139.85,-375.93C189.13,-395.8 267.56,-422 338.5,-422"/>
<polygon fill="#333388" stroke="#333388" points="140.97,-372.6 130.39,-372.04 138.31,-379.08 140.97,-372.6"/>
</g>
<!-- samp_meng.NewSymbolMsg -->
<g id="node14" class="node">
<title>samp_meng.NewSymbolMsg</title>
<polygon fill="none" stroke="#bbbbbb" points="347.5,-365 347.5,-386 535.5,-386 535.5,-365 347.5,-365"/>
<text text-anchor="start" x="350.5" y="-371.8" font-family="Courier,monospace" font-size="14.00" fill="#333388">samp_meng.NewSymbolMsg</text>
<polygon fill="none" stroke="#bbbbbb" points="347.5,-344 347.5,-365 535.5,-365 535.5,-344 347.5,-344"/>
<text text-anchor="start" x="404" y="-350.8" font-family="Courier,monospace" font-size="14.00" fill="#333388">Base base</text>
</g>
<!-- samp_meng.MsgHeader&#45;&gt;samp_meng.NewSymbolMsg -->
<g id="edge25" class="edge">
<title>samp_meng.MsgHeader&#45;&gt;samp_meng.NewSymbolMsg:Base base</title>
<path fill="none" stroke="#333388" d="M189.35,-354C236.87,-354 294.64,-354 346.5,-354"/>
<polygon fill="#333388" stroke="#333388" points="189.06,-350.5 179.06,-354 189.06,-357.5 189.06,-350.5"/>
</g>
<!-- samp_meng.NewSymbolReqMsg -->
<g id="node15" class="node">
<title>samp_meng.NewSymbolReqMsg</title>
<polygon fill="none" stroke="#bbbbbb" points="335.5,-297 335.5,-318 548.5,-318 548.5,-297 335.5,-297"/>
<text text-anchor="start" x="338.5" y="-303.8" font-family="Courier,monospace" font-size="14.00" fill="#333388">samp_meng.NewSymbolReqMsg</text>
<polygon fill="none" stroke="#bbbbbb" points="335.5,-276 335.5,-297 548.5,-297 548.5,-276 335.5,-276"/>
<text text-anchor="start" x="404.5" y="-282.8" font-family="Courier,monospace" font-size="14.00" fill="#333388">Base base</text>
</g>
<!-- samp_meng.MsgHeader&#45;&gt;samp_meng.NewSymbolReqMsg -->
<g id="edge26" class="edge">
<title>samp_meng.MsgHeader&#45;&gt;samp_meng.NewSymbolReqMsg:Base base</title>
<path fill="none" stroke="#333388" d="M139.02,-332.07C187.48,-312.2 264.62,-286 334.5,-286"/>
<polygon fill="#333388" stroke="#333388" points="137.6,-328.87 129.72,-335.96 140.29,-335.33 137.6,-328.87"/>
</g>
<!-- samp_meng.NewUserMsg -->
<g id="node16" class="node">
<title>samp_meng.NewUserMsg</title>
<polygon fill="none" stroke="#bbbbbb" points="355.5,-229 355.5,-250 527.5,-250 527.5,-229 355.5,-229"/>
<text text-anchor="start" x="358.5" y="-235.8" font-family="Courier,monospace" font-size="14.00" fill="#333388">samp_meng.NewUserMsg</text>
<polygon fill="none" stroke="#bbbbbb" points="355.5,-208 355.5,-229 527.5,-229 527.5,-208 355.5,-208"/>
<text text-anchor="start" x="404" y="-214.8" font-family="Courier,monospace" font-size="14.00" fill="#333388">Base base</text>
</g>
<!-- samp_meng.MsgHeader&#45;&gt;samp_meng.NewUserMsg -->
<g id="edge27" class="edge">
<title>samp_meng.MsgHeader&#45;&gt;samp_meng.NewUserMsg:Base base</title>
<path fill="none" stroke="#333388" d="M117.18,-329.25C162.37,-290.04 258.44,-218 354.5,-218"/>
<polygon fill="#333388" stroke="#333388" points="114.79,-326.7 109.61,-335.94 119.42,-331.95 114.79,-326.7"/>
</g>
<!-- samp_meng.NewUserReqMsg -->
<g id="node17" class="node">
<title>samp_meng.NewUserReqMsg</title>
<polygon fill="none" stroke="#bbbbbb" points="343.5,-161 343.5,-182 539.5,-182 539.5,-161 343.5,-161"/>
<text text-anchor="start" x="346.5" y="-167.8" font-family="Courier,monospace" font-size="14.00" fill="#333388">samp_meng.NewUserReqMsg</text>
<polygon fill="none" stroke="#bbbbbb" points="343.5,-140 343.5,-161 539.5,-161 539.5,-140 343.5,-140"/>
<text text-anchor="start" x="404" y="-146.8" font-family="Courier,monospace" font-size="14.00" fill="#333388">Base base</text>
</g>
<!-- samp_meng.MsgHeader&#45;&gt;samp_meng.NewUserReqMsg -->
<g id="edge28" class="edge">
<title>samp_meng.MsgHeader&#45;&gt;samp_meng.NewUserReqMsg:Base base</title>
<path fill="none" stroke="#333388" d="M106.29,-327.31C141.27,-272.01 231.06,-150 342.5,-150"/>
<polygon fill="#333388" stroke="#333388" points="103.27,-325.55 100.97,-335.9 109.21,-329.24 103.27,-325.55"/>
</g>
<!-- samp_meng.OrderTradeMsg -->
<g id="node18" class="node">
<title>samp_meng.OrderTradeMsg</title>
<polygon fill="none" stroke="#bbbbbb" points="343.5,-93 343.5,-114 539.5,-114 539.5,-93 343.5,-93"/>
<text text-anchor="start" x="346.5" y="-99.8" font-family="Courier,monospace" font-size="14.00" fill="#333388">samp_meng.OrderTradeMsg</text>
<polygon fill="none" stroke="#bbbbbb" points="343.5,-72 343.5,-93 539.5,-93 539.5,-72 343.5,-72"/>
<text text-anchor="start" x="404" y="-78.8" font-family="Courier,monospace" font-size="14.00" fill="#333388">Base base</text>
</g>
<!-- samp_meng.MsgHeader&#45;&gt;samp_meng.OrderTradeMsg -->
<g id="edge29" class="edge">
<title>samp_meng.MsgHeader&#45;&gt;samp_meng.OrderTradeMsg:Base base</title>
<path fill="none" stroke="#333388" d="M100.65,-326.32C128.01,-257.1 210.28,-82 342.5,-82"/>
<polygon fill="#333388" stroke="#333388" points="97.35,-325.14 97.01,-335.73 103.88,-327.67 97.35,-325.14"/>
</g>
<!-- samp_meng.TextMsg -->
<g id="node21" class="node">
<title>samp_meng.TextMsg</title>
<polygon fill="none" stroke="#bbbbbb" points="368.5,-25 368.5,-46 515.5,-46 515.5,-25 368.5,-25"/>
<text text-anchor="start" x="371.5" y="-31.8" font-family="Courier,monospace" font-size="14.00" fill="#333388">samp_meng.TextMsg</text>
<polygon fill="none" stroke="#bbbbbb" points="368.5,-4 368.5,-25 515.5,-25 515.5,-4 368.5,-4"/>
<text text-anchor="start" x="404.5" y="-10.8" font-family="Courier,monospace" font-size="14.00" fill="#333388">Base base</text>
</g>
<!-- samp_meng.MsgHeader&#45;&gt;samp_meng.TextMsg -->
<g id="edge30" class="edge">
<title>samp_meng.MsgHeader&#45;&gt;samp_meng.TextMsg:Base base</title>
<path fill="none" stroke="#333388" d="M98.44,-325.65C123.21,-243.98 207.19,-14 367.5,-14"/>
<polygon fill="#333388" stroke="#333388" points="94.94,-325.14 95.46,-335.72 101.65,-327.12 94.94,-325.14"/>
</g>
</g>
</svg>
