<?xml version="1.0" encoding="UTF-8" standalone="no"?>
<!DOCTYPE svg PUBLIC "-//W3C//DTD SVG 1.1//EN"
 "http://www.w3.org/Graphics/SVG/1.1/DTD/svg11.dtd">
<!-- Generated by graphviz version 2.43.0 (0)
 -->
<!-- Title: %3 Pages: 1 -->
<svg width="744pt" height="205pt"
 viewBox="0.00 0.00 744.00 205.00" xmlns="http://www.w3.org/2000/svg" xmlns:xlink="http://www.w3.org/1999/xlink">
<g id="graph0" class="graph" transform="scale(1 1) rotate(0) translate(4 201)">
<title>%3</title>
<polygon fill="white" stroke="transparent" points="-4,4 -4,-201 740,-201 740,4 -4,4"/>
<!-- myns.Client -->
<g id="node1" class="node">
<title>myns.Client</title>
<polygon fill="none" stroke="#bbbbbb" points="336.5,-57.5 336.5,-78.5 433.5,-78.5 433.5,-57.5 336.5,-57.5"/>
<text text-anchor="start" x="339.5" y="-64.3" font-family="Courier,monospace" font-size="14.00" fill="#333388">myns.Client</text>
</g>
<!-- myns.FDb -->
<g id="node2" class="node">
<title>myns.FDb</title>
<polygon fill="none" stroke="#bbbbbb" points="8.5,-171.5 8.5,-192.5 147.5,-192.5 147.5,-171.5 8.5,-171.5"/>
<text text-anchor="start" x="44.5" y="-178.3" font-family="Courier,monospace" font-size="14.00" fill="#333388">myns.FDb</text>
<polygon fill="none" stroke="#bbbbbb" points="8.5,-150.5 8.5,-171.5 147.5,-171.5 147.5,-150.5 8.5,-150.5"/>
<text text-anchor="start" x="40.5" y="-157.3" font-family="Courier,monospace" font-size="14.00" fill="#333388">Lary part</text>
<polygon fill="none" stroke="#bbbbbb" points="8.5,-129.5 8.5,-150.5 147.5,-150.5 147.5,-129.5 8.5,-129.5"/>
<text text-anchor="start" x="32.5" y="-136.3" font-family="Courier,monospace" font-size="14.00" fill="#333388">Tpool order</text>
<polygon fill="none" stroke="#bbbbbb" points="8.5,-108.5 8.5,-129.5 147.5,-129.5 147.5,-108.5 8.5,-108.5"/>
<text text-anchor="start" x="28" y="-115.3" font-family="Courier,monospace" font-size="14.00" fill="#333388">Tpool client</text>
<polygon fill="none" stroke="#bbbbbb" points="8.5,-87.5 8.5,-108.5 147.5,-108.5 147.5,-87.5 8.5,-87.5"/>
<text text-anchor="start" x="24" y="-94.3" font-family="Courier,monospace" font-size="14.00" fill="#333388">Llist zd_part</text>
<polygon fill="none" stroke="#bbbbbb" points="8.5,-66.5 8.5,-87.5 147.5,-87.5 147.5,-66.5 8.5,-66.5"/>
<text text-anchor="start" x="20" y="-73.3" font-family="Courier,monospace" font-size="14.00" fill="#333388">Thash ind_part</text>
<polygon fill="none" stroke="#bbbbbb" points="8.5,-45.5 8.5,-66.5 147.5,-66.5 147.5,-45.5 8.5,-45.5"/>
<text text-anchor="start" x="16" y="-52.3" font-family="Courier,monospace" font-size="14.00" fill="#333388">Thash ind_order</text>
<polygon fill="none" stroke="#bbbbbb" points="8.5,-24.5 8.5,-45.5 147.5,-45.5 147.5,-24.5 8.5,-24.5"/>
<text text-anchor="start" x="20" y="-31.3" font-family="Courier,monospace" font-size="14.00" fill="#333388">Llist zd_order</text>
<polygon fill="none" stroke="#bbbbbb" points="8.5,-3.5 8.5,-24.5 147.5,-24.5 147.5,-3.5 8.5,-3.5"/>
<text text-anchor="start" x="11.5" y="-10.3" font-family="Courier,monospace" font-size="14.00" fill="#333388">Thash ind_client</text>
</g>
<!-- myns.FDb&#45;&gt;myns.Client -->
<g id="edge3" class="edge">
<title>myns.FDb:Tpool client&#45;&gt;myns.Client</title>
<path fill="none" stroke="#333388" d="M148.5,-119.5C180.91,-119.5 260.45,-100.74 318.03,-85.97"/>
<polygon fill="#333388" stroke="#333388" points="318.98,-89.34 327.79,-83.46 317.23,-82.57 318.98,-89.34"/>
</g>
<!-- myns.FDb&#45;&gt;myns.Client -->
<g id="edge8" class="edge">
<title>myns.FDb:Thash ind_client&#45;&gt;myns.Client</title>
<path fill="none" stroke="#333388" d="M148.5,-13.5C210.31,-13.5 278.91,-31.76 325.96,-47.24"/>
<polygon fill="#333388" stroke="#333388" points="325.06,-50.63 335.66,-50.49 327.29,-43.99 325.06,-50.63"/>
</g>
<!-- myns.FPart -->
<g id="node3" class="node">
<title>myns.FPart</title>
<polygon fill="none" stroke="#bbbbbb" points="307.5,-129.5 307.5,-150.5 462.5,-150.5 462.5,-129.5 307.5,-129.5"/>
<text text-anchor="start" x="343.5" y="-136.3" font-family="Courier,monospace" font-size="14.00" fill="#333388">myns.FPart</text>
<polygon fill="none" stroke="#bbbbbb" points="307.5,-108.5 307.5,-129.5 462.5,-129.5 462.5,-108.5 307.5,-108.5"/>
<text text-anchor="start" x="310.5" y="-115.3" font-family="Courier,monospace" font-size="14.00" fill="#333388">Llist zd_partorder</text>
</g>
<!-- myns.FDb&#45;&gt;myns.FPart -->
<g id="edge1" class="edge">
<title>myns.FDb:Lary part&#45;&gt;myns.FPart</title>
<path fill="none" stroke="#333388" d="M148.5,-161.5C194.91,-161.5 246.01,-155.3 288.67,-148.35"/>
<polygon fill="#333388" stroke="#333388" points="289.47,-151.77 298.76,-146.67 288.32,-144.86 289.47,-151.77"/>
</g>
<!-- myns.FDb&#45;&gt;myns.FPart -->
<g id="edge4" class="edge">
<title>myns.FDb:Llist zd_part&#45;&gt;myns.FPart</title>
<path fill="none" stroke="#333388" d="M148.5,-97.5C194.91,-97.5 246.01,-103.7 288.67,-110.65"/>
<polygon fill="#333388" stroke="#333388" points="288.32,-114.14 298.76,-112.33 289.47,-107.23 288.32,-114.14"/>
</g>
<!-- myns.FDb&#45;&gt;myns.FPart -->
<g id="edge5" class="edge">
<title>myns.FDb:Thash ind_part&#45;&gt;myns.FPart</title>
<path fill="none" stroke="#333388" d="M148.5,-76.5C200.23,-76.5 256.82,-88.87 301.51,-101.66"/>
<polygon fill="#333388" stroke="#333388" points="300.56,-105.03 311.14,-104.47 302.53,-98.31 300.56,-105.03"/>
</g>
<!-- myns.Order -->
<g id="node4" class="node">
<title>myns.Order</title>
<polygon fill="none" stroke="#bbbbbb" points="622,-118.5 622,-139.5 728,-139.5 728,-118.5 622,-118.5"/>
<text text-anchor="start" x="633.5" y="-125.3" font-family="Courier,monospace" font-size="14.00" fill="#333388">myns.Order</text>
<polygon fill="none" stroke="#bbbbbb" points="622,-97.5 622,-118.5 728,-118.5 728,-97.5 622,-97.5"/>
<text text-anchor="start" x="625" y="-104.3" font-family="Courier,monospace" font-size="14.00" fill="#333388">Upptr p_part</text>
</g>
<!-- myns.FDb&#45;&gt;myns.Order -->
<g id="edge2" class="edge">
<title>myns.FDb:Tpool order&#45;&gt;myns.Order</title>
<path fill="none" stroke="#333388" d="M148.5,-140.5C216.17,-140.5 231.53,-158.37 299,-163.5 374.78,-169.26 394.45,-171.73 470,-163.5 515.2,-158.57 565.06,-147.68 604.17,-137.84"/>
<polygon fill="#333388" stroke="#333388" points="605.05,-141.23 613.87,-135.37 603.32,-134.45 605.05,-141.23"/>
</g>
<!-- myns.FDb&#45;&gt;myns.Order -->
<g id="edge6" class="edge">
<title>myns.FDb:Thash ind_order&#45;&gt;myns.Order</title>
<path fill="none" stroke="#333388" d="M148.5,-55.5C291.52,-55.5 329.3,-15.83 470,-41.5 520.16,-50.65 574.02,-71.49 613.79,-89.18"/>
<polygon fill="#333388" stroke="#333388" points="612.52,-92.45 623.07,-93.37 615.4,-86.07 612.52,-92.45"/>
</g>
<!-- myns.FDb&#45;&gt;myns.Order -->
<g id="edge7" class="edge">
<title>myns.FDb:Llist zd_order&#45;&gt;myns.Order</title>
<path fill="none" stroke="#333388" d="M148.5,-34.5C291.41,-34.5 330.11,-0.31 470,-29.5 524.22,-40.81 581.67,-67.36 621.75,-88.53"/>
<polygon fill="#333388" stroke="#333388" points="620.32,-91.74 630.78,-93.37 623.62,-85.57 620.32,-91.74"/>
</g>
<!-- myns.FPart&#45;&gt;myns.Order -->
<g id="edge9" class="edge">
<title>myns.FPart:Llist zd_partorder&#45;&gt;myns.Order</title>
<path fill="none" stroke="#333388" d="M463.5,-118.5C510.16,-118.5 562.64,-118.5 603.53,-118.5"/>
<polygon fill="#333388" stroke="#333388" points="603.66,-122 613.66,-118.5 603.66,-115 603.66,-122"/>
</g>
<!-- myns.FPart&#45;&gt;myns.Order -->
<g id="edge10" class="edge">
<title>myns.FPart&#45;&gt;myns.Order:Upptr p_part</title>
<path fill="none" stroke="#333388" d="M480.22,-116.6C523.12,-111.8 574.53,-107.5 621,-107.5"/>
<polygon fill="#333388" stroke="#333388" points="479.61,-113.14 470.07,-117.76 480.4,-120.1 479.61,-113.14"/>
</g>
</g>
</svg>
